{
	"asset":{
		"generator":"Khronos glTF Blender I/O v3.6.28",
		"version":"2.0"
	},
	"scene":0,
	"scenes":[
		{
			"name":"Scene",
			"nodes":[
				0,
				1,
				2,
				3,
				4,
				5,
				6,
				7,
				8,
				9,
				10,
				11,
				12,
				13,
				14,
				15,
				16,
				17,
				18
			]
		}
	],
	"nodes":[
		{
			"mesh":0,
			"name":"Cone.004"
		},
		{
			"mesh":1,
			"name":"Cone.001"
		},
		{
			"mesh":2,
			"name":"Cone.002"
		},
		{
			"mesh":3,
			"name":"Cone.003"
		},
		{
			"mesh":4,
			"name":"Cone.005"
		},
		{
			"mesh":5,
			"name":"Cone.006"
		},
		{
			"mesh":6,
			"name":"Cone.007"
		},
		{
			"mesh":7,
			"name":"Cone.008"
		},
		{
			"mesh":8,
			"name":"Cone.009"
		},
		{
			"mesh":9,
			"name":"Cone.010"
		},
		{
			"mesh":10,
			"name":"Cone.011"
		},
		{
			"mesh":11,
			"name":"Cone.012"
		},
		{
			"mesh":12,
			"name":"Cone.013"
		},
		{
			"mesh":13,
			"name":"Cone.014"
		},
		{
			"mesh":14,
			"name":"Cone.015"
		},
		{
			"mesh":15,
			"name":"Cone.016"
		},
		{
			"mesh":16,
			"name":"Cone.017"
		},
		{
			"mesh":17,
			"name":"Cone.018"
		},
		{
			"mesh":18,
			"name":"Cone.019"
		}
	],
	"materials":[
		{
			"doubleSided":true,
			"name":"Nose Ring",
			"pbrMetallicRoughness":{
				"baseColorFactor":[
					0.7919942736625671,
					0.8000000715255737,
					0.11020267754793167,
					1
				],
				"metallicFactor":0,
				"roughnessFactor":0.5
			}
		},
		{
			"doubleSided":true,
			"name":"Cow Head",
			"pbrMetallicRoughness":{
				"baseColorTexture":{
					"index":0
				},
				"metallicFactor":0,
				"roughnessFactor":0.5
			}
		},
		{
			"doubleSided":true,
			"name":"Cow Ear ",
			"pbrMetallicRoughness":{
				"baseColorFactor":[
					0.019544154405593872,
					0.019544154405593872,
					0.019544154405593872,
					1
				],
				"metallicFactor":0,
				"roughnessFactor":0.5
			}
		},
		{
			"doubleSided":true,
			"name":"Cow Mouth",
			"pbrMetallicRoughness":{
				"baseColorTexture":{
					"index":1
				},
				"metallicFactor":0,
				"roughnessFactor":0.5
			}
		},
		{
			"doubleSided":true,
			"name":"Cow Body",
			"pbrMetallicRoughness":{
				"baseColorTexture":{
					"index":2
				},
				"metallicFactor":0,
				"roughnessFactor":0.5
			}
		},
		{
			"doubleSided":true,
			"name":"Cow Horn",
			"pbrMetallicRoughness":{
				"baseColorFactor":[
					0.8000000715255737,
					0.6339448690414429,
					0.2926422655582428,
					1
				],
				"metallicFactor":0,
				"roughnessFactor":0.5
			}
		}
	],
	"meshes":[
		{
			"name":"Cone.004",
			"primitives":[
				{
					"attributes":{
						"POSITION":0,
						"NORMAL":1,
						"TEXCOORD_0":2
					},
					"indices":3,
					"material":0
				}
			]
		},
		{
			"name":"Cone.002",
			"primitives":[
				{
					"attributes":{
						"POSITION":4,
						"NORMAL":5,
						"TEXCOORD_0":6
					},
					"indices":7,
					"material":0
				}
			]
		},
		{
			"name":"Cone.003",
			"primitives":[
				{
					"attributes":{
						"POSITION":8,
						"NORMAL":9,
						"TEXCOORD_0":10
					},
					"indices":11,
					"material":1
				}
			]
		},
		{
			"name":"Cone.015",
			"primitives":[
				{
					"attributes":{
						"POSITION":12,
						"NORMAL":13,
						"TEXCOORD_0":14
					},
					"indices":11,
					"material":2
				}
			]
		},
		{
			"name":"Cone.016",
			"primitives":[
				{
					"attributes":{
						"POSITION":15,
						"NORMAL":16,
						"TEXCOORD_0":17
					},
					"indices":11,
					"material":3
				}
			]
		},
		{
			"name":"Cone.017",
			"primitives":[
				{
					"attributes":{
						"POSITION":18,
						"NORMAL":19,
						"TEXCOORD_0":20
					},
					"indices":11,
					"material":4
				}
			]
		},
		{
			"name":"Cone.018",
			"primitives":[
				{
					"attributes":{
						"POSITION":21,
						"NORMAL":22,
						"TEXCOORD_0":23
					},
					"indices":24,
					"material":4
				}
			]
		},
		{
			"name":"Cone.019",
			"primitives":[
				{
					"attributes":{
						"POSITION":25,
						"NORMAL":26,
						"TEXCOORD_0":27
					},
					"indices":24,
					"material":4
				}
			]
		},
		{
			"name":"Cone.020",
			"primitives":[
				{
					"attributes":{
						"POSITION":28,
						"NORMAL":29,
						"TEXCOORD_0":30
					},
					"indices":31,
					"material":2
				}
			]
		},
		{
			"name":"Cone.021",
			"primitives":[
				{
					"attributes":{
						"POSITION":32,
						"NORMAL":33,
						"TEXCOORD_0":34
					},
					"indices":31,
					"material":2
				}
			]
		},
		{
			"name":"Cone.022",
			"primitives":[
				{
					"attributes":{
						"POSITION":35,
						"NORMAL":36,
						"TEXCOORD_0":37
					},
					"indices":38,
					"material":5
				}
			]
		},
		{
			"name":"Cone.023",
			"primitives":[
				{
					"attributes":{
						"POSITION":39,
						"NORMAL":40,
						"TEXCOORD_0":41
					},
					"indices":38,
					"material":5
				}
			]
		},
		{
			"name":"Cone.024",
			"primitives":[
				{
					"attributes":{
						"POSITION":42,
						"NORMAL":43,
						"TEXCOORD_0":44
					},
					"indices":45,
					"material":2
				}
			]
		},
		{
			"name":"Cone.025",
			"primitives":[
				{
					"attributes":{
						"POSITION":46,
						"NORMAL":47,
						"TEXCOORD_0":48
					},
					"indices":45,
					"material":2
				}
			]
		},
		{
			"name":"Cone.026",
			"primitives":[
				{
					"attributes":{
						"POSITION":49,
						"NORMAL":50,
						"TEXCOORD_0":51
					},
					"indices":45,
					"material":2
				}
			]
		},
		{
			"name":"Cone.027",
			"primitives":[
				{
					"attributes":{
						"POSITION":52,
						"NORMAL":53,
						"TEXCOORD_0":54
					},
					"indices":45,
					"material":2
				}
			]
		},
		{
			"name":"Cone.028",
			"primitives":[
				{
					"attributes":{
						"POSITION":55,
						"NORMAL":56,
						"TEXCOORD_0":57
					},
					"indices":45,
					"material":2
				}
			]
		},
		{
			"name":"Cone.029",
			"primitives":[
				{
					"attributes":{
						"POSITION":58,
						"NORMAL":59,
						"TEXCOORD_0":60
					},
					"indices":45,
					"material":2
				}
			]
		},
		{
			"name":"Cone.030",
			"primitives":[
				{
					"attributes":{
						"POSITION":61,
						"NORMAL":62,
						"TEXCOORD_0":63
					},
					"indices":45,
					"material":2
				}
			]
		}
	],
	"textures":[
		{
			"sampler":0,
			"source":0
		},
		{
			"sampler":0,
			"source":1
		},
		{
			"sampler":0,
			"source":2
		}
	],
	"images":[
		{
			"mimeType":"image/png",
			"name":"Cow Head",
			"uri":"Cow%20Head.png"
		},
		{
			"mimeType":"image/png",
			"name":"Cow Moth Texture",
			"uri":"Cow%20Moth%20Texture.png"
		},
		{
			"mimeType":"image/png",
			"name":"Cow Body Texture",
			"uri":"Cow%20Body%20Texture.png"
		}
	],
	"accessors":[
		{
			"bufferView":0,
			"componentType":5126,
			"count":130,
			"max":[
				-0.12985718250274658,
				4.0409255027771,
				-3.2696900367736816
			],
			"min":[
				-1.6562532186508179,
				-0.3202061653137207,
				-4.79608678817749
			],
			"type":"VEC3"
		},
		{
			"bufferView":1,
			"componentType":5126,
			"count":130,
			"type":"VEC3"
		},
		{
			"bufferView":2,
			"componentType":5126,
			"count":130,
			"type":"VEC2"
		},
		{
			"bufferView":3,
			"componentType":5123,
			"count":372,
			"type":"SCALAR"
		},
		{
			"bufferView":4,
			"componentType":5126,
			"count":637,
			"max":[
				0.809566080570221,
				5.875929355621338,
				6.025331974029541
			],
			"min":[
				-0.9846740961074829,
				4.142826080322266,
				5.3072052001953125
			],
			"type":"VEC3"
		},
		{
			"bufferView":5,
			"componentType":5126,
			"count":637,
			"type":"VEC3"
		},
		{
			"bufferView":6,
			"componentType":5126,
			"count":637,
			"type":"VEC2"
		},
		{
			"bufferView":7,
			"componentType":5123,
			"count":3456,
			"type":"SCALAR"
		},
		{
			"bufferView":8,
			"componentType":5126,
			"count":559,
			"max":[
				2.103900194168091,
				8.924497604370117,
				4.413381576538086
			],
			"min":[
				-2.2572293281555176,
				4.563365459442139,
				0.05225154757499695
			],
			"type":"VEC3"
		},
		{
			"bufferView":9,
			"componentType":5126,
			"count":559,
			"type":"VEC3"
		},
		{
			"bufferView":10,
			"componentType":5126,
			"count":559,
			"type":"VEC2"
		},
		{
			"bufferView":11,
			"componentType":5123,
			"count":2880,
			"type":"SCALAR"
		},
		{
			"bufferView":12,
			"componentType":5126,
			"count":559,
			"max":[
				0.6080881953239441,
				2.115163564682007,
				-5.3761725425720215
			],
			"min":[
				-0.4821941554546356,
				0.6402717232704163,
				-6.466455459594727
			],
			"type":"VEC3"
		},
		{
			"bufferView":13,
			"componentType":5126,
			"count":559,
			"type":"VEC3"
		},
		{
			"bufferView":14,
			"componentType":5126,
			"count":559,
			"type":"VEC2"
		},
		{
			"bufferView":15,
			"componentType":5126,
			"count":559,
			"max":[
				2.3802764415740967,
				7.0064544677734375,
				5.9076690673828125
			],
			"min":[
				-2.635021924972534,
				3.5175487995147705,
				1.5465385913848877
			],
			"type":"VEC3"
		},
		{
			"bufferView":16,
			"componentType":5126,
			"count":559,
			"type":"VEC3"
		},
		{
			"bufferView":17,
			"componentType":5126,
			"count":559,
			"type":"VEC2"
		},
		{
			"bufferView":18,
			"componentType":5126,
			"count":559,
			"max":[
				2.6717145442962646,
				6.910740852355957,
				2.3215909004211426
			],
			"min":[
				-2.5616397857666016,
				1.748907208442688,
				-5.795501708984375
			],
			"type":"VEC3"
		},
		{
			"bufferView":19,
			"componentType":5126,
			"count":559,
			"type":"VEC3"
		},
		{
			"bufferView":20,
			"componentType":5126,
			"count":559,
			"type":"VEC2"
		},
		{
			"bufferView":21,
			"componentType":5126,
			"count":66,
			"max":[
				0.35978734493255615,
				5.736845970153809,
				-5.129690647125244
			],
			"min":[
				-0.17445138096809387,
				3.071056842803955,
				-6.322972297668457
			],
			"type":"VEC3"
		},
		{
			"bufferView":22,
			"componentType":5126,
			"count":66,
			"type":"VEC3"
		},
		{
			"bufferView":23,
			"componentType":5126,
			"count":66,
			"type":"VEC2"
		},
		{
			"bufferView":24,
			"componentType":5123,
			"count":180,
			"type":"SCALAR"
		},
		{
			"bufferView":25,
			"componentType":5126,
			"count":66,
			"max":[
				0.3597871959209442,
				3.4330787658691406,
				-5.73802375793457
			],
			"min":[
				-0.1744515299797058,
				1.4705694913864136,
				-6.272263050079346
			],
			"type":"VEC3"
		},
		{
			"bufferView":26,
			"componentType":5126,
			"count":66,
			"type":"VEC3"
		},
		{
			"bufferView":27,
			"componentType":5126,
			"count":66,
			"type":"VEC2"
		},
		{
			"bufferView":28,
			"componentType":5126,
			"count":26,
			"max":[
				3.2747302055358887,
				8.404807090759277,
				3.326057195663452
			],
			"min":[
				1.0900737047195435,
				6.972108364105225,
				1.173080563545227
			],
			"type":"VEC3"
		},
		{
			"bufferView":29,
			"componentType":5126,
			"count":26,
			"type":"VEC3"
		},
		{
			"bufferView":30,
			"componentType":5126,
			"count":26,
			"type":"VEC2"
		},
		{
			"bufferView":31,
			"componentType":5123,
			"count":60,
			"type":"SCALAR"
		},
		{
			"bufferView":32,
			"componentType":5126,
			"count":26,
			"max":[
				-1.2434128522872925,
				8.404807090759277,
				3.326057195663452
			],
			"min":[
				-3.4280688762664795,
				6.972108364105225,
				1.173080563545227
			],
			"type":"VEC3"
		},
		{
			"bufferView":33,
			"componentType":5126,
			"count":26,
			"type":"VEC3"
		},
		{
			"bufferView":34,
			"componentType":5126,
			"count":26,
			"type":"VEC2"
		},
		{
			"bufferView":35,
			"componentType":5126,
			"count":192,
			"max":[
				1.345102310180664,
				9.964252471923828,
				3.4218571186065674
			],
			"min":[
				0.12343787401914597,
				8.036788940429688,
				2.4067130088806152
			],
			"type":"VEC3"
		},
		{
			"bufferView":36,
			"componentType":5126,
			"count":192,
			"type":"VEC3"
		},
		{
			"bufferView":37,
			"componentType":5126,
			"count":192,
			"type":"VEC2"
		},
		{
			"bufferView":38,
			"componentType":5123,
			"count":372,
			"type":"SCALAR"
		},
		{
			"bufferView":39,
			"componentType":5126,
			"count":192,
			"max":[
				-0.26543891429901123,
				9.964252471923828,
				3.4218571186065674
			],
			"min":[
				-1.4871031045913696,
				8.036788940429688,
				2.4067130088806152
			],
			"type":"VEC3"
		},
		{
			"bufferView":40,
			"componentType":5126,
			"count":192,
			"type":"VEC3"
		},
		{
			"bufferView":41,
			"componentType":5126,
			"count":192,
			"type":"VEC2"
		},
		{
			"bufferView":42,
			"componentType":5126,
			"count":130,
			"max":[
				-0.4364579916000366,
				0.255744069814682,
				1.2833319902420044
			],
			"min":[
				-1.962854266166687,
				-0.39842528104782104,
				-0.2430645376443863
			],
			"type":"VEC3"
		},
		{
			"bufferView":43,
			"componentType":5126,
			"count":130,
			"type":"VEC3"
		},
		{
			"bufferView":44,
			"componentType":5126,
			"count":130,
			"type":"VEC2"
		},
		{
			"bufferView":45,
			"componentType":5123,
			"count":372,
			"type":"SCALAR"
		},
		{
			"bufferView":46,
			"componentType":5126,
			"count":130,
			"max":[
				1.8520698547363281,
				0.255744069814682,
				-3.2841808795928955
			],
			"min":[
				0.32567358016967773,
				-0.39842528104782104,
				-4.810577392578125
			],
			"type":"VEC3"
		},
		{
			"bufferView":47,
			"componentType":5126,
			"count":130,
			"type":"VEC3"
		},
		{
			"bufferView":48,
			"componentType":5126,
			"count":130,
			"type":"VEC2"
		},
		{
			"bufferView":49,
			"componentType":5126,
			"count":130,
			"max":[
				-0.1316375434398651,
				0.255744069814682,
				-3.240569591522217
			],
			"min":[
				-1.6580339670181274,
				-0.39842528104782104,
				-4.766965866088867
			],
			"type":"VEC3"
		},
		{
			"bufferView":50,
			"componentType":5126,
			"count":130,
			"type":"VEC3"
		},
		{
			"bufferView":51,
			"componentType":5126,
			"count":130,
			"type":"VEC2"
		},
		{
			"bufferView":52,
			"componentType":5126,
			"count":130,
			"max":[
				2.0275840759277344,
				0.255744069814682,
				1.2833319902420044
			],
			"min":[
				0.5011875629425049,
				-0.39842528104782104,
				-0.2430645376443863
			],
			"type":"VEC3"
		},
		{
			"bufferView":53,
			"componentType":5126,
			"count":130,
			"type":"VEC3"
		},
		{
			"bufferView":54,
			"componentType":5126,
			"count":130,
			"type":"VEC2"
		},
		{
			"bufferView":55,
			"componentType":5126,
			"count":130,
			"max":[
				2.0832912921905518,
				4.0409255027771,
				1.294234037399292
			],
			"min":[
				0.5568948984146118,
				-0.3202061653137207,
				-0.2321619838476181
			],
			"type":"VEC3"
		},
		{
			"bufferView":56,
			"componentType":5126,
			"count":130,
			"type":"VEC3"
		},
		{
			"bufferView":57,
			"componentType":5126,
			"count":130,
			"type":"VEC2"
		},
		{
			"bufferView":58,
			"componentType":5126,
			"count":130,
			"max":[
				1.8324310779571533,
				4.0409255027771,
				-3.2696900367736816
			],
			"min":[
				0.30603471398353577,
				-0.3202061653137207,
				-4.79608678817749
			],
			"type":"VEC3"
		},
		{
			"bufferView":59,
			"componentType":5126,
			"count":130,
			"type":"VEC3"
		},
		{
			"bufferView":60,
			"componentType":5126,
			"count":130,
			"type":"VEC2"
		},
		{
			"bufferView":61,
			"componentType":5126,
			"count":130,
			"max":[
				-0.43098434805870056,
				4.0409255027771,
				1.294234037399292
			],
			"min":[
				-1.9573802947998047,
				-0.3202069103717804,
				-0.2321619838476181
			],
			"type":"VEC3"
		},
		{
			"bufferView":62,
			"componentType":5126,
			"count":130,
			"type":"VEC3"
		},
		{
			"bufferView":63,
			"componentType":5126,
			"count":130,
			"type":"VEC2"
		}
	],
	"bufferViews":[
		{
			"buffer":0,
			"byteLength":1560,
			"byteOffset":0,
			"target":34962
		},
		{
			"buffer":0,
			"byteLength":1560,
			"byteOffset":1560,
			"target":34962
		},
		{
			"buffer":0,
			"byteLength":1040,
			"byteOffset":3120,
			"target":34962
		},
		{
			"buffer":0,
			"byteLength":744,
			"byteOffset":4160,
			"target":34963
		},
		{
			"buffer":0,
			"byteLength":7644,
			"byteOffset":4904,
			"target":34962
		},
		{
			"buffer":0,
			"byteLength":7644,
			"byteOffset":12548,
			"target":34962
		},
		{
			"buffer":0,
			"byteLength":5096,
			"byteOffset":20192,
			"target":34962
		},
		{
			"buffer":0,
			"byteLength":6912,
			"byteOffset":25288,
			"target":34963
		},
		{
			"buffer":0,
			"byteLength":6708,
			"byteOffset":32200,
			"target":34962
		},
		{
			"buffer":0,
			"byteLength":6708,
			"byteOffset":38908,
			"target":34962
		},
		{
			"buffer":0,
			"byteLength":4472,
			"byteOffset":45616,
			"target":34962
		},
		{
			"buffer":0,
			"byteLength":5760,
			"byteOffset":50088,
			"target":34963
		},
		{
			"buffer":0,
			"byteLength":6708,
			"byteOffset":55848,
			"target":34962
		},
		{
			"buffer":0,
			"byteLength":6708,
			"byteOffset":62556,
			"target":34962
		},
		{
			"buffer":0,
			"byteLength":4472,
			"byteOffset":69264,
			"target":34962
		},
		{
			"buffer":0,
			"byteLength":6708,
			"byteOffset":73736,
			"target":34962
		},
		{
			"buffer":0,
			"byteLength":6708,
			"byteOffset":80444,
			"target":34962
		},
		{
			"buffer":0,
			"byteLength":4472,
			"byteOffset":87152,
			"target":34962
		},
		{
			"buffer":0,
			"byteLength":6708,
			"byteOffset":91624,
			"target":34962
		},
		{
			"buffer":0,
			"byteLength":6708,
			"byteOffset":98332,
			"target":34962
		},
		{
			"buffer":0,
			"byteLength":4472,
			"byteOffset":105040,
			"target":34962
		},
		{
			"buffer":0,
			"byteLength":792,
			"byteOffset":109512,
			"target":34962
		},
		{
			"buffer":0,
			"byteLength":792,
			"byteOffset":110304,
			"target":34962
		},
		{
			"buffer":0,
			"byteLength":528,
			"byteOffset":111096,
			"target":34962
		},
		{
			"buffer":0,
			"byteLength":360,
			"byteOffset":111624,
			"target":34963
		},
		{
			"buffer":0,
			"byteLength":792,
			"byteOffset":111984,
			"target":34962
		},
		{
			"buffer":0,
			"byteLength":792,
			"byteOffset":112776,
			"target":34962
		},
		{
			"buffer":0,
			"byteLength":528,
			"byteOffset":113568,
			"target":34962
		},
		{
			"buffer":0,
			"byteLength":312,
			"byteOffset":114096,
			"target":34962
		},
		{
			"buffer":0,
			"byteLength":312,
			"byteOffset":114408,
			"target":34962
		},
		{
			"buffer":0,
			"byteLength":208,
			"byteOffset":114720,
			"target":34962
		},
		{
			"buffer":0,
			"byteLength":120,
			"byteOffset":114928,
			"target":34963
		},
		{
			"buffer":0,
			"byteLength":312,
			"byteOffset":115048,
			"target":34962
		},
		{
			"buffer":0,
			"byteLength":312,
			"byteOffset":115360,
			"target":34962
		},
		{
			"buffer":0,
			"byteLength":208,
			"byteOffset":115672,
			"target":34962
		},
		{
			"buffer":0,
			"byteLength":2304,
			"byteOffset":115880,
			"target":34962
		},
		{
			"buffer":0,
			"byteLength":2304,
			"byteOffset":118184,
			"target":34962
		},
		{
			"buffer":0,
			"byteLength":1536,
			"byteOffset":120488,
			"target":34962
		},
		{
			"buffer":0,
			"byteLength":744,
			"byteOffset":122024,
			"target":34963
		},
		{
			"buffer":0,
			"byteLength":2304,
			"byteOffset":122768,
			"target":34962
		},
		{
			"buffer":0,
			"byteLength":2304,
			"byteOffset":125072,
			"target":34962
		},
		{
			"buffer":0,
			"byteLength":1536,
			"byteOffset":127376,
			"target":34962
		},
		{
			"buffer":0,
			"byteLength":1560,
			"byteOffset":128912,
			"target":34962
		},
		{
			"buffer":0,
			"byteLength":1560,
			"byteOffset":130472,
			"target":34962
		},
		{
			"buffer":0,
			"byteLength":1040,
			"byteOffset":132032,
			"target":34962
		},
		{
			"buffer":0,
			"byteLength":744,
			"byteOffset":133072,
			"target":34963
		},
		{
			"buffer":0,
			"byteLength":1560,
			"byteOffset":133816,
			"target":34962
		},
		{
			"buffer":0,
			"byteLength":1560,
			"byteOffset":135376,
			"target":34962
		},
		{
			"buffer":0,
			"byteLength":1040,
			"byteOffset":136936,
			"target":34962
		},
		{
			"buffer":0,
			"byteLength":1560,
			"byteOffset":137976,
			"target":34962
		},
		{
			"buffer":0,
			"byteLength":1560,
			"byteOffset":139536,
			"target":34962
		},
		{
			"buffer":0,
			"byteLength":1040,
			"byteOffset":141096,
			"target":34962
		},
		{
			"buffer":0,
			"byteLength":1560,
			"byteOffset":142136,
			"target":34962
		},
		{
			"buffer":0,
			"byteLength":1560,
			"byteOffset":143696,
			"target":34962
		},
		{
			"buffer":0,
			"byteLength":1040,
			"byteOffset":145256,
			"target":34962
		},
		{
			"buffer":0,
			"byteLength":1560,
			"byteOffset":146296,
			"target":34962
		},
		{
			"buffer":0,
			"byteLength":1560,
			"byteOffset":147856,
			"target":34962
		},
		{
			"buffer":0,
			"byteLength":1040,
			"byteOffset":149416,
			"target":34962
		},
		{
			"buffer":0,
			"byteLength":1560,
			"byteOffset":150456,
			"target":34962
		},
		{
			"buffer":0,
			"byteLength":1560,
			"byteOffset":152016,
			"target":34962
		},
		{
			"buffer":0,
			"byteLength":1040,
			"byteOffset":153576,
			"target":34962
		},
		{
			"buffer":0,
			"byteLength":1560,
			"byteOffset":154616,
			"target":34962
		},
		{
			"buffer":0,
			"byteLength":1560,
			"byteOffset":156176,
			"target":34962
		},
		{
			"buffer":0,
			"byteLength":1040,
			"byteOffset":157736,
			"target":34962
		}
	],
	"samplers":[
		{
			"magFilter":9729,
			"minFilter":9987
		}
	],
	"buffers":[
		{
			"byteLength":158776,
			"uri":"cow.bin"
		}
	]
}
