{
	"asset":{
		"generator":"Khronos glTF Blender I/O v3.6.28",
		"version":"2.0"
	},
	"scene":0,
	"scenes":[
		{
			"name":"Scene",
			"nodes":[
				0,
				1,
				2,
				3,
				4,
				5,
				6,
				7,
				8,
				9,
				10,
				11,
				12,
				13,
				14,
				15,
				16,
				17,
				18
			]
		}
	],
	"nodes":[
		{
			"mesh":0,
			"name":"Sphere.001"
		},
		{
			"mesh":1,
			"name":"Cone.003"
		},
		{
			"mesh":2,
			"name":"Cone.004"
		},
		{
			"mesh":3,
			"name":"Cone.005"
		},
		{
			"mesh":4,
			"name":"Cone.006"
		},
		{
			"mesh":5,
			"name":"Sphere.003"
		},
		{
			"mesh":6,
			"name":"Torus"
		},
		{
			"mesh":7,
			"name":"Cone.007"
		},
		{
			"mesh":8,
			"name":"Cone.008"
		},
		{
			"mesh":9,
			"name":"Cone.009"
		},
		{
			"mesh":10,
			"name":"Cone.010"
		},
		{
			"mesh":11,
			"name":"Cylinder.006"
		},
		{
			"mesh":12,
			"name":"Cylinder.007"
		},
		{
			"mesh":13,
			"name":"Sphere.004"
		},
		{
			"mesh":14,
			"name":"Cone.011"
		},
		{
			"mesh":15,
			"name":"Cone.012"
		},
		{
			"mesh":16,
			"name":"Sphere.005"
		},
		{
			"mesh":17,
			"name":"Cone.013"
		},
		{
			"mesh":18,
			"name":"Cone.014"
		}
	],
	"materials":[
		{
			"doubleSided":true,
			"name":"Cow Body",
			"pbrMetallicRoughness":{
				"baseColorTexture":{
					"index":0
				},
				"metallicFactor":0,
				"roughnessFactor":0.5
			}
		},
		{
			"doubleSided":true,
			"name":"Cow Mouth",
			"pbrMetallicRoughness":{
				"baseColorTexture":{
					"index":1
				},
				"metallicFactor":0,
				"roughnessFactor":0.5
			}
		},
		{
			"doubleSided":true,
			"name":"Nose Ring",
			"pbrMetallicRoughness":{
				"baseColorFactor":[
					0.7919942736625671,
					0.8000000715255737,
					0.11020267754793167,
					1
				],
				"metallicFactor":0,
				"roughnessFactor":0.5
			}
		},
		{
			"doubleSided":true,
			"name":"Cow Ear ",
			"pbrMetallicRoughness":{
				"baseColorFactor":[
					0.019544154405593872,
					0.019544154405593872,
					0.019544154405593872,
					1
				],
				"metallicFactor":0,
				"roughnessFactor":0.5
			}
		},
		{
			"doubleSided":true,
			"name":"Cow Horn",
			"pbrMetallicRoughness":{
				"baseColorFactor":[
					0.8000000715255737,
					0.6339448690414429,
					0.2926422655582428,
					1
				],
				"metallicFactor":0,
				"roughnessFactor":0.5
			}
		},
		{
			"doubleSided":true,
			"name":"Cow Head",
			"pbrMetallicRoughness":{
				"baseColorTexture":{
					"index":2
				},
				"metallicFactor":0,
				"roughnessFactor":0.5
			}
		}
	],
	"meshes":[
		{
			"name":"Sphere.001",
			"primitives":[
				{
					"attributes":{
						"POSITION":0,
						"NORMAL":1,
						"TEXCOORD_0":2
					},
					"indices":3,
					"material":0
				}
			]
		},
		{
			"name":"Cone.001",
			"primitives":[
				{
					"attributes":{
						"POSITION":4,
						"NORMAL":5,
						"TEXCOORD_0":6
					},
					"indices":7
				}
			]
		},
		{
			"name":"Cone.004",
			"primitives":[
				{
					"attributes":{
						"POSITION":8,
						"NORMAL":9,
						"TEXCOORD_0":10
					},
					"indices":7
				}
			]
		},
		{
			"name":"Cone.005",
			"primitives":[
				{
					"attributes":{
						"POSITION":11,
						"NORMAL":12,
						"TEXCOORD_0":13
					},
					"indices":7
				}
			]
		},
		{
			"name":"Cone.006",
			"primitives":[
				{
					"attributes":{
						"POSITION":14,
						"NORMAL":15,
						"TEXCOORD_0":16
					},
					"indices":7
				}
			]
		},
		{
			"name":"Sphere.003",
			"primitives":[
				{
					"attributes":{
						"POSITION":17,
						"NORMAL":18,
						"TEXCOORD_0":19
					},
					"indices":20,
					"material":1
				}
			]
		},
		{
			"name":"Torus",
			"primitives":[
				{
					"attributes":{
						"POSITION":21,
						"NORMAL":22,
						"TEXCOORD_0":23
					},
					"indices":24,
					"material":2
				}
			]
		},
		{
			"name":"Cone.007",
			"primitives":[
				{
					"attributes":{
						"POSITION":25,
						"NORMAL":26,
						"TEXCOORD_0":27
					},
					"indices":7,
					"material":3
				}
			]
		},
		{
			"name":"Cone.008",
			"primitives":[
				{
					"attributes":{
						"POSITION":28,
						"NORMAL":29,
						"TEXCOORD_0":30
					},
					"indices":7,
					"material":3
				}
			]
		},
		{
			"name":"Cone.009",
			"primitives":[
				{
					"attributes":{
						"POSITION":31,
						"NORMAL":32,
						"TEXCOORD_0":33
					},
					"indices":7,
					"material":3
				}
			]
		},
		{
			"name":"Cone.010",
			"primitives":[
				{
					"attributes":{
						"POSITION":34,
						"NORMAL":35,
						"TEXCOORD_0":36
					},
					"indices":7,
					"material":3
				}
			]
		},
		{
			"name":"Cylinder.007",
			"primitives":[
				{
					"attributes":{
						"POSITION":37,
						"NORMAL":38,
						"TEXCOORD_0":39
					},
					"indices":40
				}
			]
		},
		{
			"name":"Cylinder.008",
			"primitives":[
				{
					"attributes":{
						"POSITION":41,
						"NORMAL":42,
						"TEXCOORD_0":43
					},
					"indices":40
				}
			]
		},
		{
			"name":"Sphere.004",
			"primitives":[
				{
					"attributes":{
						"POSITION":44,
						"NORMAL":45,
						"TEXCOORD_0":46
					},
					"indices":47,
					"material":3
				}
			]
		},
		{
			"name":"Cone.011",
			"primitives":[
				{
					"attributes":{
						"POSITION":48,
						"NORMAL":49,
						"TEXCOORD_0":50
					},
					"indices":51,
					"material":4
				}
			]
		},
		{
			"name":"Cone.013",
			"primitives":[
				{
					"attributes":{
						"POSITION":52,
						"NORMAL":53,
						"TEXCOORD_0":54
					},
					"indices":51,
					"material":4
				}
			]
		},
		{
			"name":"Sphere.005",
			"primitives":[
				{
					"attributes":{
						"COLOR_0":55,
						"POSITION":56,
						"NORMAL":57,
						"TEXCOORD_0":58
					},
					"indices":20,
					"material":5
				}
			]
		},
		{
			"name":"Cone.012",
			"primitives":[
				{
					"attributes":{
						"POSITION":59,
						"NORMAL":60,
						"TEXCOORD_0":61
					},
					"indices":62
				}
			]
		},
		{
			"name":"Cone.014",
			"primitives":[
				{
					"attributes":{
						"POSITION":63,
						"NORMAL":64,
						"TEXCOORD_0":65
					},
					"indices":62,
					"material":3
				}
			]
		}
	],
	"textures":[
		{
			"sampler":0,
			"source":0
		},
		{
			"sampler":0,
			"source":1
		},
		{
			"sampler":0,
			"source":2
		}
	],
	"images":[
		{
			"mimeType":"image/png",
			"name":"Cow Body Texture",
			"uri":"Cow%20Body%20Texture.png"
		},
		{
			"mimeType":"image/png",
			"name":"Cow Moth Texture",
			"uri":"Cow%20Moth%20Texture.png"
		},
		{
			"mimeType":"image/png",
			"name":"Cow Head",
			"uri":"Cow%20Head.png"
		}
	],
	"accessors":[
		{
			"bufferView":0,
			"componentType":5126,
			"count":559,
			"max":[
				36.35540008544922,
				5.011958599090576,
				0.7761422395706177
			],
			"min":[
				33.95540237426758,
				2.644759178161621,
				-2.946328639984131
			],
			"type":"VEC3"
		},
		{
			"bufferView":1,
			"componentType":5126,
			"count":559,
			"type":"VEC3"
		},
		{
			"bufferView":2,
			"componentType":5126,
			"count":559,
			"type":"VEC2"
		},
		{
			"bufferView":3,
			"componentType":5123,
			"count":2880,
			"type":"SCALAR"
		},
		{
			"bufferView":4,
			"componentType":5126,
			"count":130,
			"max":[
				34.93251037597656,
				3.695870876312256,
				0.3050000071525574
			],
			"min":[
				34.232513427734375,
				1.6958708763122559,
				-0.39499998092651367
			],
			"type":"VEC3"
		},
		{
			"bufferView":5,
			"componentType":5126,
			"count":130,
			"type":"VEC3"
		},
		{
			"bufferView":6,
			"componentType":5126,
			"count":130,
			"type":"VEC2"
		},
		{
			"bufferView":7,
			"componentType":5123,
			"count":372,
			"type":"SCALAR"
		},
		{
			"bufferView":8,
			"componentType":5126,
			"count":130,
			"max":[
				35.07060623168945,
				3.695870876312256,
				-1.7879999876022339
			],
			"min":[
				34.370609283447266,
				1.6958708763122559,
				-2.48799991607666
			],
			"type":"VEC3"
		},
		{
			"bufferView":9,
			"componentType":5126,
			"count":130,
			"type":"VEC3"
		},
		{
			"bufferView":10,
			"componentType":5126,
			"count":130,
			"type":"VEC2"
		},
		{
			"bufferView":11,
			"componentType":5126,
			"count":130,
			"max":[
				35.97050476074219,
				3.695870876312256,
				-1.7879999876022339
			],
			"min":[
				35.2705078125,
				1.6958708763122559,
				-2.48799991607666
			],
			"type":"VEC3"
		},
		{
			"bufferView":12,
			"componentType":5126,
			"count":130,
			"type":"VEC3"
		},
		{
			"bufferView":13,
			"componentType":5126,
			"count":130,
			"type":"VEC2"
		},
		{
			"bufferView":14,
			"componentType":5126,
			"count":130,
			"max":[
				36.085548400878906,
				3.695870876312256,
				0.3050000071525574
			],
			"min":[
				35.38555145263672,
				1.6958708763122559,
				-0.39499998092651367
			],
			"type":"VEC3"
		},
		{
			"bufferView":15,
			"componentType":5126,
			"count":130,
			"type":"VEC3"
		},
		{
			"bufferView":16,
			"componentType":5126,
			"count":130,
			"type":"VEC2"
		},
		{
			"bufferView":17,
			"componentType":5126,
			"count":559,
			"max":[
				36.22174835205078,
				5.05585241317749,
				2.4207053184509277
			],
			"min":[
				33.921749114990234,
				3.4558522701263428,
				0.4207059144973755
			],
			"type":"VEC3"
		},
		{
			"bufferView":18,
			"componentType":5126,
			"count":559,
			"type":"VEC3"
		},
		{
			"bufferView":19,
			"componentType":5126,
			"count":559,
			"type":"VEC2"
		},
		{
			"bufferView":20,
			"componentType":5123,
			"count":2880,
			"type":"SCALAR"
		},
		{
			"bufferView":21,
			"componentType":5126,
			"count":637,
			"max":[
				35.50142288208008,
				4.537397384643555,
				2.474665403366089
			],
			"min":[
				34.678592681884766,
				3.7426023483276367,
				2.145334482192993
			],
			"type":"VEC3"
		},
		{
			"bufferView":22,
			"componentType":5126,
			"count":637,
			"type":"VEC3"
		},
		{
			"bufferView":23,
			"componentType":5126,
			"count":637,
			"type":"VEC2"
		},
		{
			"bufferView":24,
			"componentType":5123,
			"count":3456,
			"type":"SCALAR"
		},
		{
			"bufferView":25,
			"componentType":5126,
			"count":130,
			"max":[
				36.060001373291016,
				1.959999918937683,
				0.30000007152557373
			],
			"min":[
				35.36000442504883,
				1.659999966621399,
				-0.40000003576278687
			],
			"type":"VEC3"
		},
		{
			"bufferView":26,
			"componentType":5126,
			"count":130,
			"type":"VEC3"
		},
		{
			"bufferView":27,
			"componentType":5126,
			"count":130,
			"type":"VEC2"
		},
		{
			"bufferView":28,
			"componentType":5126,
			"count":130,
			"max":[
				35.06978988647461,
				1.959999918937683,
				-1.774645447731018
			],
			"min":[
				34.36979293823242,
				1.659999966621399,
				-2.4746456146240234
			],
			"type":"VEC3"
		},
		{
			"bufferView":29,
			"componentType":5126,
			"count":130,
			"type":"VEC3"
		},
		{
			"bufferView":30,
			"componentType":5126,
			"count":130,
			"type":"VEC2"
		},
		{
			"bufferView":31,
			"componentType":5126,
			"count":130,
			"max":[
				35.97951126098633,
				1.959999918937683,
				-1.7946454286575317
			],
			"min":[
				35.27951431274414,
				1.659999966621399,
				-2.494645595550537
			],
			"type":"VEC3"
		},
		{
			"bufferView":32,
			"componentType":5126,
			"count":130,
			"type":"VEC3"
		},
		{
			"bufferView":33,
			"componentType":5126,
			"count":130,
			"type":"VEC2"
		},
		{
			"bufferView":34,
			"componentType":5126,
			"count":130,
			"max":[
				34.93000030517578,
				1.959999918937683,
				0.30000007152557373
			],
			"min":[
				34.230003356933594,
				1.659999966621399,
				-0.40000003576278687
			],
			"type":"VEC3"
		},
		{
			"bufferView":35,
			"componentType":5126,
			"count":130,
			"type":"VEC3"
		},
		{
			"bufferView":36,
			"componentType":5126,
			"count":130,
			"type":"VEC2"
		},
		{
			"bufferView":37,
			"componentType":5126,
			"count":66,
			"max":[
				35.29515838623047,
				3.417114734649658,
				-2.9199695587158203
			],
			"min":[
				35.05015563964844,
				2.5171146392822266,
				-3.1649694442749023
			],
			"type":"VEC3"
		},
		{
			"bufferView":38,
			"componentType":5126,
			"count":66,
			"type":"VEC3"
		},
		{
			"bufferView":39,
			"componentType":5126,
			"count":66,
			"type":"VEC2"
		},
		{
			"bufferView":40,
			"componentType":5123,
			"count":180,
			"type":"SCALAR"
		},
		{
			"bufferView":41,
			"componentType":5126,
			"count":66,
			"max":[
				35.29515838623047,
				4.47361421585083,
				-2.6409900188446045
			],
			"min":[
				35.05015563964844,
				3.2510924339294434,
				-3.1882245540618896
			],
			"type":"VEC3"
		},
		{
			"bufferView":42,
			"componentType":5126,
			"count":66,
			"type":"VEC3"
		},
		{
			"bufferView":43,
			"componentType":5126,
			"count":66,
			"type":"VEC2"
		},
		{
			"bufferView":44,
			"componentType":5126,
			"count":559,
			"max":[
				35.409027099609375,
				2.812723159790039,
				-2.75402569770813
			],
			"min":[
				34.909027099609375,
				2.136343002319336,
				-3.254025459289551
			],
			"type":"VEC3"
		},
		{
			"bufferView":45,
			"componentType":5126,
			"count":559,
			"type":"VEC3"
		},
		{
			"bufferView":46,
			"componentType":5126,
			"count":559,
			"type":"VEC2"
		},
		{
			"bufferView":47,
			"componentType":5123,
			"count":2880,
			"type":"SCALAR"
		},
		{
			"bufferView":48,
			"componentType":5126,
			"count":192,
			"max":[
				35.00843048095703,
				6.412288665771484,
				1.2807204723358154
			],
			"min":[
				34.44818115234375,
				5.528360366821289,
				0.8151788711547852
			],
			"type":"VEC3"
		},
		{
			"bufferView":49,
			"componentType":5126,
			"count":192,
			"type":"VEC3"
		},
		{
			"bufferView":50,
			"componentType":5126,
			"count":192,
			"type":"VEC2"
		},
		{
			"bufferView":51,
			"componentType":5123,
			"count":372,
			"type":"SCALAR"
		},
		{
			"bufferView":52,
			"componentType":5126,
			"count":192,
			"max":[
				35.74701690673828,
				6.412288665771484,
				1.2807204723358154
			],
			"min":[
				35.186767578125,
				5.528360366821289,
				0.8151788711547852
			],
			"type":"VEC3"
		},
		{
			"bufferView":53,
			"componentType":5126,
			"count":192,
			"type":"VEC3"
		},
		{
			"bufferView":54,
			"componentType":5126,
			"count":192,
			"type":"VEC2"
		},
		{
			"bufferView":55,
			"componentType":5123,
			"count":559,
			"normalized":true,
			"type":"VEC4"
		},
		{
			"bufferView":56,
			"componentType":5126,
			"count":559,
			"max":[
				36.095001220703125,
				5.935460090637207,
				1.735430359840393
			],
			"min":[
				34.095001220703125,
				3.935460090637207,
				-0.2645689845085144
			],
			"type":"VEC3"
		},
		{
			"bufferView":57,
			"componentType":5126,
			"count":559,
			"type":"VEC3"
		},
		{
			"bufferView":58,
			"componentType":5126,
			"count":559,
			"type":"VEC2"
		},
		{
			"bufferView":59,
			"componentType":5126,
			"count":26,
			"max":[
				34.5599365234375,
				5.697132110595703,
				1.2367868423461914
			],
			"min":[
				33.55805969238281,
				5.040101528167725,
				0.24943917989730835
			],
			"type":"VEC3"
		},
		{
			"bufferView":60,
			"componentType":5126,
			"count":26,
			"type":"VEC3"
		},
		{
			"bufferView":61,
			"componentType":5126,
			"count":26,
			"type":"VEC2"
		},
		{
			"bufferView":62,
			"componentType":5123,
			"count":60,
			"type":"SCALAR"
		},
		{
			"bufferView":63,
			"componentType":5126,
			"count":26,
			"max":[
				36.63193893432617,
				5.697132110595703,
				1.2367868423461914
			],
			"min":[
				35.630062103271484,
				5.040101528167725,
				0.24943917989730835
			],
			"type":"VEC3"
		},
		{
			"bufferView":64,
			"componentType":5126,
			"count":26,
			"type":"VEC3"
		},
		{
			"bufferView":65,
			"componentType":5126,
			"count":26,
			"type":"VEC2"
		}
	],
	"bufferViews":[
		{
			"buffer":0,
			"byteLength":6708,
			"byteOffset":0,
			"target":34962
		},
		{
			"buffer":0,
			"byteLength":6708,
			"byteOffset":6708,
			"target":34962
		},
		{
			"buffer":0,
			"byteLength":4472,
			"byteOffset":13416,
			"target":34962
		},
		{
			"buffer":0,
			"byteLength":5760,
			"byteOffset":17888,
			"target":34963
		},
		{
			"buffer":0,
			"byteLength":1560,
			"byteOffset":23648,
			"target":34962
		},
		{
			"buffer":0,
			"byteLength":1560,
			"byteOffset":25208,
			"target":34962
		},
		{
			"buffer":0,
			"byteLength":1040,
			"byteOffset":26768,
			"target":34962
		},
		{
			"buffer":0,
			"byteLength":744,
			"byteOffset":27808,
			"target":34963
		},
		{
			"buffer":0,
			"byteLength":1560,
			"byteOffset":28552,
			"target":34962
		},
		{
			"buffer":0,
			"byteLength":1560,
			"byteOffset":30112,
			"target":34962
		},
		{
			"buffer":0,
			"byteLength":1040,
			"byteOffset":31672,
			"target":34962
		},
		{
			"buffer":0,
			"byteLength":1560,
			"byteOffset":32712,
			"target":34962
		},
		{
			"buffer":0,
			"byteLength":1560,
			"byteOffset":34272,
			"target":34962
		},
		{
			"buffer":0,
			"byteLength":1040,
			"byteOffset":35832,
			"target":34962
		},
		{
			"buffer":0,
			"byteLength":1560,
			"byteOffset":36872,
			"target":34962
		},
		{
			"buffer":0,
			"byteLength":1560,
			"byteOffset":38432,
			"target":34962
		},
		{
			"buffer":0,
			"byteLength":1040,
			"byteOffset":39992,
			"target":34962
		},
		{
			"buffer":0,
			"byteLength":6708,
			"byteOffset":41032,
			"target":34962
		},
		{
			"buffer":0,
			"byteLength":6708,
			"byteOffset":47740,
			"target":34962
		},
		{
			"buffer":0,
			"byteLength":4472,
			"byteOffset":54448,
			"target":34962
		},
		{
			"buffer":0,
			"byteLength":5760,
			"byteOffset":58920,
			"target":34963
		},
		{
			"buffer":0,
			"byteLength":7644,
			"byteOffset":64680,
			"target":34962
		},
		{
			"buffer":0,
			"byteLength":7644,
			"byteOffset":72324,
			"target":34962
		},
		{
			"buffer":0,
			"byteLength":5096,
			"byteOffset":79968,
			"target":34962
		},
		{
			"buffer":0,
			"byteLength":6912,
			"byteOffset":85064,
			"target":34963
		},
		{
			"buffer":0,
			"byteLength":1560,
			"byteOffset":91976,
			"target":34962
		},
		{
			"buffer":0,
			"byteLength":1560,
			"byteOffset":93536,
			"target":34962
		},
		{
			"buffer":0,
			"byteLength":1040,
			"byteOffset":95096,
			"target":34962
		},
		{
			"buffer":0,
			"byteLength":1560,
			"byteOffset":96136,
			"target":34962
		},
		{
			"buffer":0,
			"byteLength":1560,
			"byteOffset":97696,
			"target":34962
		},
		{
			"buffer":0,
			"byteLength":1040,
			"byteOffset":99256,
			"target":34962
		},
		{
			"buffer":0,
			"byteLength":1560,
			"byteOffset":100296,
			"target":34962
		},
		{
			"buffer":0,
			"byteLength":1560,
			"byteOffset":101856,
			"target":34962
		},
		{
			"buffer":0,
			"byteLength":1040,
			"byteOffset":103416,
			"target":34962
		},
		{
			"buffer":0,
			"byteLength":1560,
			"byteOffset":104456,
			"target":34962
		},
		{
			"buffer":0,
			"byteLength":1560,
			"byteOffset":106016,
			"target":34962
		},
		{
			"buffer":0,
			"byteLength":1040,
			"byteOffset":107576,
			"target":34962
		},
		{
			"buffer":0,
			"byteLength":792,
			"byteOffset":108616,
			"target":34962
		},
		{
			"buffer":0,
			"byteLength":792,
			"byteOffset":109408,
			"target":34962
		},
		{
			"buffer":0,
			"byteLength":528,
			"byteOffset":110200,
			"target":34962
		},
		{
			"buffer":0,
			"byteLength":360,
			"byteOffset":110728,
			"target":34963
		},
		{
			"buffer":0,
			"byteLength":792,
			"byteOffset":111088,
			"target":34962
		},
		{
			"buffer":0,
			"byteLength":792,
			"byteOffset":111880,
			"target":34962
		},
		{
			"buffer":0,
			"byteLength":528,
			"byteOffset":112672,
			"target":34962
		},
		{
			"buffer":0,
			"byteLength":6708,
			"byteOffset":113200,
			"target":34962
		},
		{
			"buffer":0,
			"byteLength":6708,
			"byteOffset":119908,
			"target":34962
		},
		{
			"buffer":0,
			"byteLength":4472,
			"byteOffset":126616,
			"target":34962
		},
		{
			"buffer":0,
			"byteLength":5760,
			"byteOffset":131088,
			"target":34963
		},
		{
			"buffer":0,
			"byteLength":2304,
			"byteOffset":136848,
			"target":34962
		},
		{
			"buffer":0,
			"byteLength":2304,
			"byteOffset":139152,
			"target":34962
		},
		{
			"buffer":0,
			"byteLength":1536,
			"byteOffset":141456,
			"target":34962
		},
		{
			"buffer":0,
			"byteLength":744,
			"byteOffset":142992,
			"target":34963
		},
		{
			"buffer":0,
			"byteLength":2304,
			"byteOffset":143736,
			"target":34962
		},
		{
			"buffer":0,
			"byteLength":2304,
			"byteOffset":146040,
			"target":34962
		},
		{
			"buffer":0,
			"byteLength":1536,
			"byteOffset":148344,
			"target":34962
		},
		{
			"buffer":0,
			"byteLength":4472,
			"byteOffset":149880,
			"target":34962
		},
		{
			"buffer":0,
			"byteLength":6708,
			"byteOffset":154352,
			"target":34962
		},
		{
			"buffer":0,
			"byteLength":6708,
			"byteOffset":161060,
			"target":34962
		},
		{
			"buffer":0,
			"byteLength":4472,
			"byteOffset":167768,
			"target":34962
		},
		{
			"buffer":0,
			"byteLength":312,
			"byteOffset":172240,
			"target":34962
		},
		{
			"buffer":0,
			"byteLength":312,
			"byteOffset":172552,
			"target":34962
		},
		{
			"buffer":0,
			"byteLength":208,
			"byteOffset":172864,
			"target":34962
		},
		{
			"buffer":0,
			"byteLength":120,
			"byteOffset":173072,
			"target":34963
		},
		{
			"buffer":0,
			"byteLength":312,
			"byteOffset":173192,
			"target":34962
		},
		{
			"buffer":0,
			"byteLength":312,
			"byteOffset":173504,
			"target":34962
		},
		{
			"buffer":0,
			"byteLength":208,
			"byteOffset":173816,
			"target":34962
		}
	],
	"samplers":[
		{
			"magFilter":9729,
			"minFilter":9987
		}
	],
	"buffers":[
		{
			"byteLength":174024,
			"uri":"cow2.bin"
		}
	]
}
