{
	"asset":{
		"generator":"Khronos glTF Blender I/O v3.6.28",
		"version":"2.0"
	},
	"scene":0,
	"scenes":[
		{
			"name":"Scene",
			"nodes":[
				0,
				1,
				2
			]
		}
	],
	"nodes":[
		{
			"mesh":0,
			"name":"Cylinder"
		},
		{
			"mesh":1,
			"name":"Cylinder.001"
		},
		{
			"mesh":2,
			"name":"Cylinder.002"
		}
	],
	"materials":[
		{
			"doubleSided":true,
			"name":"Fence Material",
			"pbrMetallicRoughness":{
				"metallicFactor":0,
				"roughnessFactor":0.5
			}
		},
		{
			"doubleSided":true,
			"name":"Banner Material",
			"pbrMetallicRoughness":{
				"metallicFactor":0,
				"roughnessFactor":0.5
			}
		}
	],
	"meshes":[
		{
			"name":"Cylinder",
			"primitives":[
				{
					"attributes":{
						"POSITION":0,
						"NORMAL":1,
						"TEXCOORD_0":2
					},
					"indices":3,
					"material":0
				}
			]
		},
		{
			"name":"Cylinder.002",
			"primitives":[
				{
					"attributes":{
						"POSITION":4,
						"NORMAL":5,
						"TEXCOORD_0":6
					},
					"indices":7,
					"material":1
				}
			]
		},
		{
			"name":"Cylinder.003",
			"primitives":[
				{
					"attributes":{
						"POSITION":8,
						"NORMAL":9,
						"TEXCOORD_0":10
					},
					"indices":11,
					"material":0
				}
			]
		}
	],
	"accessors":[
		{
			"bufferView":0,
			"componentType":5126,
			"count":130,
			"max":[
				-13.152359962463379,
				11.978654861450195,
				0.926291286945343
			],
			"min":[
				-15.031637191772461,
				-4.859673023223877,
				-0.9529865980148315
			],
			"type":"VEC3"
		},
		{
			"bufferView":1,
			"componentType":5126,
			"count":130,
			"type":"VEC3"
		},
		{
			"bufferView":2,
			"componentType":5126,
			"count":130,
			"type":"VEC2"
		},
		{
			"bufferView":3,
			"componentType":5123,
			"count":372,
			"type":"SCALAR"
		},
		{
			"bufferView":4,
			"componentType":5126,
			"count":4,
			"max":[
				34.32308578491211,
				11.420897483825684,
				0.03435877338051796
			],
			"min":[
				-13.727738380432129,
				6.666324615478516,
				0.034358564764261246
			],
			"type":"VEC3"
		},
		{
			"bufferView":5,
			"componentType":5126,
			"count":4,
			"type":"VEC3"
		},
		{
			"bufferView":6,
			"componentType":5126,
			"count":4,
			"type":"VEC2"
		},
		{
			"bufferView":7,
			"componentType":5123,
			"count":6,
			"type":"SCALAR"
		},
		{
			"bufferView":8,
			"componentType":5126,
			"count":130,
			"max":[
				35.77063751220703,
				11.978654861450195,
				0.926291286945343
			],
			"min":[
				33.891361236572266,
				-4.859673023223877,
				-0.9529865980148315
			],
			"type":"VEC3"
		},
		{
			"bufferView":9,
			"componentType":5126,
			"count":130,
			"type":"VEC3"
		},
		{
			"bufferView":10,
			"componentType":5126,
			"count":130,
			"type":"VEC2"
		},
		{
			"bufferView":11,
			"componentType":5123,
			"count":372,
			"type":"SCALAR"
		}
	],
	"bufferViews":[
		{
			"buffer":0,
			"byteLength":1560,
			"byteOffset":0,
			"target":34962
		},
		{
			"buffer":0,
			"byteLength":1560,
			"byteOffset":1560,
			"target":34962
		},
		{
			"buffer":0,
			"byteLength":1040,
			"byteOffset":3120,
			"target":34962
		},
		{
			"buffer":0,
			"byteLength":744,
			"byteOffset":4160,
			"target":34963
		},
		{
			"buffer":0,
			"byteLength":48,
			"byteOffset":4904,
			"target":34962
		},
		{
			"buffer":0,
			"byteLength":48,
			"byteOffset":4952,
			"target":34962
		},
		{
			"buffer":0,
			"byteLength":32,
			"byteOffset":5000,
			"target":34962
		},
		{
			"buffer":0,
			"byteLength":12,
			"byteOffset":5032,
			"target":34963
		},
		{
			"buffer":0,
			"byteLength":1560,
			"byteOffset":5044,
			"target":34962
		},
		{
			"buffer":0,
			"byteLength":1560,
			"byteOffset":6604,
			"target":34962
		},
		{
			"buffer":0,
			"byteLength":1040,
			"byteOffset":8164,
			"target":34962
		},
		{
			"buffer":0,
			"byteLength":744,
			"byteOffset":9204,
			"target":34963
		}
	],
	"buffers":[
		{
			"byteLength":9948,
			"uri":"finishLine.bin"
		}
	]
}
