{
	"asset":{
		"generator":"Khronos glTF Blender I/O v3.6.28",
		"version":"2.0"
	},
	"scene":0,
	"scenes":[
		{
			"name":"Scene",
			"nodes":[
				0,
				1
			]
		}
	],
	"nodes":[
		{
			"mesh":0,
			"name":"Yoshi.038"
		},
		{
			"mesh":1,
			"name":"Yoshi.001"
		}
	],
	"materials":[
		{
			"doubleSided":true,
			"name":"Dark Black.002",
			"pbrMetallicRoughness":{
				"baseColorFactor":[
					0.0015475299442186952,
					0.0015475299442186952,
					0.0015475299442186952,
					1
				],
				"metallicFactor":0,
				"roughnessFactor":0.5
			}
		},
		{
			"doubleSided":true,
			"name":"Wheel",
			"pbrMetallicRoughness":{
				"baseColorFactor":[
					0.005925269331783056,
					0.005925269331783056,
					0.005925269331783056,
					1
				],
				"metallicFactor":0,
				"roughnessFactor":0.5
			}
		}
	],
	"meshes":[
		{
			"name":"Sphere.039",
			"primitives":[
				{
					"attributes":{
						"COLOR_0":0,
						"POSITION":1,
						"NORMAL":2,
						"TEXCOORD_0":3
					},
					"indices":4,
					"material":0
				}
			]
		},
		{
			"name":"Sphere.001",
			"primitives":[
				{
					"attributes":{
						"COLOR_0":5,
						"POSITION":6,
						"NORMAL":7,
						"TEXCOORD_0":8
					},
					"indices":9,
					"material":1
				}
			]
		}
	],
	"accessors":[
		{
			"bufferView":0,
			"componentType":5123,
			"count":192,
			"normalized":true,
			"type":"VEC4"
		},
		{
			"bufferView":1,
			"componentType":5126,
			"count":192,
			"max":[
				0.17819131910800934,
				0.4946584701538086,
				0.4895843267440796
			],
			"min":[
				-0.1595863252878189,
				-0.4747653007507324,
				-0.4798392057418823
			],
			"type":"VEC3"
		},
		{
			"bufferView":2,
			"componentType":5126,
			"count":192,
			"type":"VEC3"
		},
		{
			"bufferView":3,
			"componentType":5126,
			"count":192,
			"type":"VEC2"
		},
		{
			"bufferView":4,
			"componentType":5123,
			"count":372,
			"type":"SCALAR"
		},
		{
			"bufferView":5,
			"componentType":5123,
			"count":2304,
			"normalized":true,
			"type":"VEC4"
		},
		{
			"bufferView":6,
			"componentType":5126,
			"count":2304,
			"max":[
				0.17052426934242249,
				0.7553887367248535,
				0.758644700050354
			],
			"min":[
				-0.182426318526268,
				-0.7680935859680176,
				-0.7648366689682007
			],
			"type":"VEC3"
		},
		{
			"bufferView":7,
			"componentType":5126,
			"count":2304,
			"type":"VEC3"
		},
		{
			"bufferView":8,
			"componentType":5126,
			"count":2304,
			"type":"VEC2"
		},
		{
			"bufferView":9,
			"componentType":5123,
			"count":3456,
			"type":"SCALAR"
		}
	],
	"bufferViews":[
		{
			"buffer":0,
			"byteLength":1536,
			"byteOffset":0,
			"target":34962
		},
		{
			"buffer":0,
			"byteLength":2304,
			"byteOffset":1536,
			"target":34962
		},
		{
			"buffer":0,
			"byteLength":2304,
			"byteOffset":3840,
			"target":34962
		},
		{
			"buffer":0,
			"byteLength":1536,
			"byteOffset":6144,
			"target":34962
		},
		{
			"buffer":0,
			"byteLength":744,
			"byteOffset":7680,
			"target":34963
		},
		{
			"buffer":0,
			"byteLength":18432,
			"byteOffset":8424,
			"target":34962
		},
		{
			"buffer":0,
			"byteLength":27648,
			"byteOffset":26856,
			"target":34962
		},
		{
			"buffer":0,
			"byteLength":27648,
			"byteOffset":54504,
			"target":34962
		},
		{
			"buffer":0,
			"byteLength":18432,
			"byteOffset":82152,
			"target":34962
		},
		{
			"buffer":0,
			"byteLength":6912,
			"byteOffset":100584,
			"target":34963
		}
	],
	"buffers":[
		{
			"byteLength":107496,
			"uri":"wheely.bin"
		}
	]
}
