{
	"asset":{
		"generator":"Khronos glTF Blender I/O v3.6.28",
		"version":"2.0"
	},
	"scene":0,
	"scenes":[
		{
			"name":"Scene",
			"nodes":[
				0,
				1,
				2,
				3,
				4,
				5,
				6,
				7
			]
		}
	],
	"nodes":[
		{
			"mesh":0,
			"name":"Cylinder.002"
		},
		{
			"mesh":1,
			"name":"Cylinder.001"
		},
		{
			"mesh":2,
			"name":"Cylinder.003"
		},
		{
			"mesh":3,
			"name":"Cylinder.004"
		},
		{
			"mesh":4,
			"name":"Cylinder.005"
		},
		{
			"mesh":5,
			"name":"Cylinder.006"
		},
		{
			"mesh":6,
			"name":"Cylinder.007"
		},
		{
			"mesh":7,
			"name":"Cylinder.008"
		}
	],
	"materials":[
		{
			"doubleSided":true,
			"name":"Windmill Base Material",
			"pbrMetallicRoughness":{
				"baseColorTexture":{
					"index":0
				},
				"metallicFactor":0,
				"roughnessFactor":0.5
			}
		},
		{
			"doubleSided":true,
			"name":"Tree Material",
			"pbrMetallicRoughness":{
				"baseColorFactor":[
					0.10247376561164856,
					0.06504875421524048,
					0.042119547724723816,
					1
				],
				"metallicFactor":0,
				"roughnessFactor":0.5
			}
		},
		{
			"doubleSided":true,
			"name":"Windmill Fan",
			"pbrMetallicRoughness":{
				"baseColorTexture":{
					"index":1
				},
				"metallicFactor":0,
				"roughnessFactor":0.5
			}
		},
		{
			"doubleSided":true,
			"name":"Windmill Center Material",
			"pbrMetallicRoughness":{
				"baseColorTexture":{
					"index":2
				},
				"metallicFactor":0,
				"roughnessFactor":0.5
			}
		}
	],
	"meshes":[
		{
			"name":"Cylinder.002",
			"primitives":[
				{
					"attributes":{
						"POSITION":0,
						"NORMAL":1,
						"TEXCOORD_0":2
					},
					"indices":3,
					"material":0
				}
			]
		},
		{
			"name":"Cylinder.001",
			"primitives":[
				{
					"attributes":{
						"POSITION":4,
						"NORMAL":5,
						"TEXCOORD_0":6
					},
					"indices":7,
					"material":1
				}
			]
		},
		{
			"name":"Cylinder.004",
			"primitives":[
				{
					"attributes":{
						"POSITION":8,
						"NORMAL":9,
						"TEXCOORD_0":10
					},
					"indices":11,
					"material":2
				}
			]
		},
		{
			"name":"Cylinder.005",
			"primitives":[
				{
					"attributes":{
						"POSITION":12,
						"NORMAL":13,
						"TEXCOORD_0":14
					},
					"indices":15,
					"material":2
				}
			]
		},
		{
			"name":"Cylinder.006",
			"primitives":[
				{
					"attributes":{
						"POSITION":16,
						"NORMAL":17,
						"TEXCOORD_0":18
					},
					"indices":11,
					"material":2
				}
			]
		},
		{
			"name":"Cylinder.007",
			"primitives":[
				{
					"attributes":{
						"POSITION":19,
						"NORMAL":20,
						"TEXCOORD_0":21
					},
					"indices":15,
					"material":2
				}
			]
		},
		{
			"name":"Cylinder.008",
			"primitives":[
				{
					"attributes":{
						"POSITION":22,
						"NORMAL":23,
						"TEXCOORD_0":24
					},
					"indices":25,
					"material":1
				}
			]
		},
		{
			"name":"Cylinder.009",
			"primitives":[
				{
					"attributes":{
						"POSITION":26,
						"NORMAL":27,
						"TEXCOORD_0":28
					},
					"indices":25,
					"material":3
				}
			]
		}
	],
	"textures":[
		{
			"sampler":0,
			"source":0
		},
		{
			"sampler":0,
			"source":1
		},
		{
			"sampler":0,
			"source":2
		}
	],
	"images":[
		{
			"mimeType":"image/png",
			"name":"Windmill Base Texture",
			"uri":"Windmill%20Base%20Texture.png"
		},
		{
			"mimeType":"image/png",
			"name":"Windmill Fan texture",
			"uri":"Windmill%20Fan%20texture.png"
		},
		{
			"mimeType":"image/png",
			"name":"Windmill Center Texture",
			"uri":"Windmill%20Center%20Texture.png"
		}
	],
	"accessors":[
		{
			"bufferView":0,
			"componentType":5126,
			"count":48,
			"max":[
				8.016237258911133,
				5.48492431640625,
				6.488527297973633
			],
			"min":[
				-5.56535530090332,
				-1.819559097290039,
				-7.093066215515137
			],
			"type":"VEC3"
		},
		{
			"bufferView":1,
			"componentType":5126,
			"count":48,
			"type":"VEC3"
		},
		{
			"bufferView":2,
			"componentType":5126,
			"count":48,
			"type":"VEC2"
		},
		{
			"bufferView":3,
			"componentType":5123,
			"count":84,
			"type":"SCALAR"
		},
		{
			"bufferView":4,
			"componentType":5126,
			"count":192,
			"max":[
				3.017460346221924,
				25.252094268798828,
				7.286273002624512
			],
			"min":[
				-0.6347815990447998,
				21.599851608276367,
				0.3954997658729553
			],
			"type":"VEC3"
		},
		{
			"bufferView":5,
			"componentType":5126,
			"count":192,
			"type":"VEC3"
		},
		{
			"bufferView":6,
			"componentType":5126,
			"count":192,
			"type":"VEC2"
		},
		{
			"bufferView":7,
			"componentType":5123,
			"count":372,
			"type":"SCALAR"
		},
		{
			"bufferView":8,
			"componentType":5126,
			"count":24,
			"max":[
				1.6687157154083252,
				23.823389053344727,
				6.676383972167969
			],
			"min":[
				-11.633589744567871,
				10.771799087524414,
				6.222081184387207
			],
			"type":"VEC3"
		},
		{
			"bufferView":9,
			"componentType":5126,
			"count":24,
			"type":"VEC3"
		},
		{
			"bufferView":10,
			"componentType":5126,
			"count":24,
			"type":"VEC2"
		},
		{
			"bufferView":11,
			"componentType":5123,
			"count":36,
			"type":"SCALAR"
		},
		{
			"bufferView":12,
			"componentType":5126,
			"count":24,
			"max":[
				1.7088176012039185,
				35.97639846801758,
				6.864792823791504
			],
			"min":[
				-11.342775344848633,
				22.67409324645996,
				6.410490036010742
			],
			"type":"VEC3"
		},
		{
			"bufferView":13,
			"componentType":5126,
			"count":24,
			"type":"VEC3"
		},
		{
			"bufferView":14,
			"componentType":5126,
			"count":24,
			"type":"VEC2"
		},
		{
			"bufferView":15,
			"componentType":5123,
			"count":36,
			"type":"SCALAR"
		},
		{
			"bufferView":16,
			"componentType":5126,
			"count":24,
			"max":[
				14.743616104125977,
				35.417633056640625,
				6.82247257232666
			],
			"min":[
				1.4413087368011475,
				22.366043090820312,
				6.368169784545898
			],
			"type":"VEC3"
		},
		{
			"bufferView":17,
			"componentType":5126,
			"count":24,
			"type":"VEC3"
		},
		{
			"bufferView":18,
			"componentType":5126,
			"count":24,
			"type":"VEC2"
		},
		{
			"bufferView":19,
			"componentType":5126,
			"count":24,
			"max":[
				13.513853073120117,
				23.594026565551758,
				6.6564226150512695
			],
			"min":[
				0.46225976943969727,
				10.29172134399414,
				6.202119827270508
			],
			"type":"VEC3"
		},
		{
			"bufferView":20,
			"componentType":5126,
			"count":24,
			"type":"VEC3"
		},
		{
			"bufferView":21,
			"componentType":5126,
			"count":24,
			"type":"VEC2"
		},
		{
			"bufferView":22,
			"componentType":5126,
			"count":48,
			"max":[
				6.235487937927246,
				25.600357055664062,
				4.807413101196289
			],
			"min":[
				-3.9073994159698486,
				19.672388076782227,
				-5.335474967956543
			],
			"type":"VEC3"
		},
		{
			"bufferView":23,
			"componentType":5126,
			"count":48,
			"type":"VEC3"
		},
		{
			"bufferView":24,
			"componentType":5126,
			"count":48,
			"type":"VEC2"
		},
		{
			"bufferView":25,
			"componentType":5123,
			"count":84,
			"type":"SCALAR"
		},
		{
			"bufferView":26,
			"componentType":5126,
			"count":48,
			"max":[
				8.471010208129883,
				19.971094131469727,
				7.144091606140137
			],
			"min":[
				-6.067130088806152,
				4.766434669494629,
				-7.394048690795898
			],
			"type":"VEC3"
		},
		{
			"bufferView":27,
			"componentType":5126,
			"count":48,
			"type":"VEC3"
		},
		{
			"bufferView":28,
			"componentType":5126,
			"count":48,
			"type":"VEC2"
		}
	],
	"bufferViews":[
		{
			"buffer":0,
			"byteLength":576,
			"byteOffset":0,
			"target":34962
		},
		{
			"buffer":0,
			"byteLength":576,
			"byteOffset":576,
			"target":34962
		},
		{
			"buffer":0,
			"byteLength":384,
			"byteOffset":1152,
			"target":34962
		},
		{
			"buffer":0,
			"byteLength":168,
			"byteOffset":1536,
			"target":34963
		},
		{
			"buffer":0,
			"byteLength":2304,
			"byteOffset":1704,
			"target":34962
		},
		{
			"buffer":0,
			"byteLength":2304,
			"byteOffset":4008,
			"target":34962
		},
		{
			"buffer":0,
			"byteLength":1536,
			"byteOffset":6312,
			"target":34962
		},
		{
			"buffer":0,
			"byteLength":744,
			"byteOffset":7848,
			"target":34963
		},
		{
			"buffer":0,
			"byteLength":288,
			"byteOffset":8592,
			"target":34962
		},
		{
			"buffer":0,
			"byteLength":288,
			"byteOffset":8880,
			"target":34962
		},
		{
			"buffer":0,
			"byteLength":192,
			"byteOffset":9168,
			"target":34962
		},
		{
			"buffer":0,
			"byteLength":72,
			"byteOffset":9360,
			"target":34963
		},
		{
			"buffer":0,
			"byteLength":288,
			"byteOffset":9432,
			"target":34962
		},
		{
			"buffer":0,
			"byteLength":288,
			"byteOffset":9720,
			"target":34962
		},
		{
			"buffer":0,
			"byteLength":192,
			"byteOffset":10008,
			"target":34962
		},
		{
			"buffer":0,
			"byteLength":72,
			"byteOffset":10200,
			"target":34963
		},
		{
			"buffer":0,
			"byteLength":288,
			"byteOffset":10272,
			"target":34962
		},
		{
			"buffer":0,
			"byteLength":288,
			"byteOffset":10560,
			"target":34962
		},
		{
			"buffer":0,
			"byteLength":192,
			"byteOffset":10848,
			"target":34962
		},
		{
			"buffer":0,
			"byteLength":288,
			"byteOffset":11040,
			"target":34962
		},
		{
			"buffer":0,
			"byteLength":288,
			"byteOffset":11328,
			"target":34962
		},
		{
			"buffer":0,
			"byteLength":192,
			"byteOffset":11616,
			"target":34962
		},
		{
			"buffer":0,
			"byteLength":576,
			"byteOffset":11808,
			"target":34962
		},
		{
			"buffer":0,
			"byteLength":576,
			"byteOffset":12384,
			"target":34962
		},
		{
			"buffer":0,
			"byteLength":384,
			"byteOffset":12960,
			"target":34962
		},
		{
			"buffer":0,
			"byteLength":168,
			"byteOffset":13344,
			"target":34963
		},
		{
			"buffer":0,
			"byteLength":576,
			"byteOffset":13512,
			"target":34962
		},
		{
			"buffer":0,
			"byteLength":576,
			"byteOffset":14088,
			"target":34962
		},
		{
			"buffer":0,
			"byteLength":384,
			"byteOffset":14664,
			"target":34962
		}
	],
	"samplers":[
		{
			"magFilter":9729,
			"minFilter":9987
		}
	],
	"buffers":[
		{
			"byteLength":15048,
			"uri":"windmill.bin"
		}
	]
}
